<?xml version="1.0" encoding="utf-8" standalone="no"?>
<!DOCTYPE svg PUBLIC "-//W3C//DTD SVG 1.1//EN"
  "http://www.w3.org/Graphics/SVG/1.1/DTD/svg11.dtd">
<svg xmlns:xlink="http://www.w3.org/1999/xlink" width="864pt" height="432pt" viewBox="0 0 864 432" xmlns="http://www.w3.org/2000/svg" version="1.1">
 <metadata>
  <rdf:RDF xmlns:dc="http://purl.org/dc/elements/1.1/" xmlns:cc="http://creativecommons.org/ns#" xmlns:rdf="http://www.w3.org/1999/02/22-rdf-syntax-ns#">
   <cc:Work>
    <dc:type rdf:resource="http://purl.org/dc/dcmitype/StillImage"/>
    <dc:date>2022-08-21T17:04:55.727477</dc:date>
    <dc:format>image/svg+xml</dc:format>
    <dc:creator>
     <cc:Agent>
      <dc:title>Matplotlib v3.5.1, https://matplotlib.org/</dc:title>
     </cc:Agent>
    </dc:creator>
   </cc:Work>
  </rdf:RDF>
 </metadata>
 <defs>
  <style type="text/css">*{stroke-linejoin: round; stroke-linecap: butt}</style>
 </defs>
 <g id="figure_1">
  <g id="patch_1">
   <path d="M 0 432 
L 864 432 
L 864 0 
L 0 0 
z
" style="fill: #ffffff"/>
  </g>
  <g id="axes_1">
   <g id="patch_2">
    <path d="M 86.4 388.8 
L 388.8 388.8 
L 388.8 0 
L 86.4 0 
z
" style="fill: #ffffff"/>
   </g>
   <g id="matplotlib.axis_1">
    <g id="xtick_1">
     <g id="line2d_1">
      <path d="M 100.145455 388.8 
L 100.145455 0 
" clip-path="url(#p3cc52b2e7e)" style="fill: none; stroke: #b0b0b0; stroke-opacity: 0.3; stroke-width: 0.8; stroke-linecap: square"/>
     </g>
     <g id="line2d_2">
      <defs>
       <path id="mce4cc6da3d" d="M 0 0 
L 0 3.5 
" style="stroke: #000000; stroke-width: 0.8"/>
      </defs>
      <g>
       <use xlink:href="#mce4cc6da3d" x="100.145455" y="388.8" style="stroke: #000000; stroke-width: 0.8"/>
      </g>
     </g>
     <g id="text_1">
      <!-- $0$ -->
      <g transform="translate(95.880495 405.927197)scale(0.13328 -0.13328)">
       <defs>
        <path id="DejaVuSans-30" d="M 2034 4250 
Q 1547 4250 1301 3770 
Q 1056 3291 1056 2328 
Q 1056 1369 1301 889 
Q 1547 409 2034 409 
Q 2525 409 2770 889 
Q 3016 1369 3016 2328 
Q 3016 3291 2770 3770 
Q 2525 4250 2034 4250 
z
M 2034 4750 
Q 2819 4750 3233 4129 
Q 3647 3509 3647 2328 
Q 3647 1150 3233 529 
Q 2819 -91 2034 -91 
Q 1250 -91 836 529 
Q 422 1150 422 2328 
Q 422 3509 836 4129 
Q 1250 4750 2034 4750 
z
" transform="scale(0.015625)"/>
       </defs>
       <use xlink:href="#DejaVuSans-30" transform="translate(0 0.78125)"/>
      </g>
     </g>
    </g>
    <g id="xtick_2">
     <g id="line2d_3">
      <path d="M 134.509091 388.8 
L 134.509091 0 
" clip-path="url(#p3cc52b2e7e)" style="fill: none; stroke: #b0b0b0; stroke-opacity: 0.3; stroke-width: 0.8; stroke-linecap: square"/>
     </g>
     <g id="line2d_4">
      <g>
       <use xlink:href="#mce4cc6da3d" x="134.509091" y="388.8" style="stroke: #000000; stroke-width: 0.8"/>
      </g>
     </g>
     <g id="text_2">
      <!-- $\frac{\pi}{2}$ -->
      <g transform="translate(130.643971 406.99552)scale(0.13328 -0.13328)">
       <defs>
        <path id="DejaVuSans-Oblique-3c0" d="M 584 3500 
L 3938 3500 
L 3825 2925 
L 3384 2925 
L 2966 775 
Q 2922 550 2981 450 
Q 3038 353 3209 353 
Q 3256 353 3325 363 
Q 3397 369 3419 372 
L 3338 -44 
Q 3222 -84 3103 -103 
Q 2981 -122 2866 -122 
Q 2491 -122 2388 81 
Q 2284 288 2391 838 
L 2797 2925 
L 1506 2925 
L 938 0 
L 350 0 
L 919 2925 
L 472 2925 
L 584 3500 
z
" transform="scale(0.015625)"/>
        <path id="DejaVuSans-32" d="M 1228 531 
L 3431 531 
L 3431 0 
L 469 0 
L 469 531 
Q 828 903 1448 1529 
Q 2069 2156 2228 2338 
Q 2531 2678 2651 2914 
Q 2772 3150 2772 3378 
Q 2772 3750 2511 3984 
Q 2250 4219 1831 4219 
Q 1534 4219 1204 4116 
Q 875 4013 500 3803 
L 500 4441 
Q 881 4594 1212 4672 
Q 1544 4750 1819 4750 
Q 2544 4750 2975 4387 
Q 3406 4025 3406 3419 
Q 3406 3131 3298 2873 
Q 3191 2616 2906 2266 
Q 2828 2175 2409 1742 
Q 1991 1309 1228 531 
z
" transform="scale(0.015625)"/>
       </defs>
       <use xlink:href="#DejaVuSans-Oblique-3c0" transform="translate(1 45.71875)scale(0.7)"/>
       <use xlink:href="#DejaVuSans-32" transform="translate(0 -38.81875)scale(0.7)"/>
       <path d="M 0 19.384375 
L 0 25.634375 
L 44.536133 25.634375 
L 44.536133 19.384375 
L 0 19.384375 
z
"/>
      </g>
     </g>
    </g>
    <g id="xtick_3">
     <g id="line2d_5">
      <path d="M 168.872727 388.8 
L 168.872727 0 
" clip-path="url(#p3cc52b2e7e)" style="fill: none; stroke: #b0b0b0; stroke-opacity: 0.3; stroke-width: 0.8; stroke-linecap: square"/>
     </g>
     <g id="line2d_6">
      <g>
       <use xlink:href="#mce4cc6da3d" x="168.872727" y="388.8" style="stroke: #000000; stroke-width: 0.8"/>
      </g>
     </g>
     <g id="text_3">
      <!-- $\pi$ -->
      <g transform="translate(164.807687 405.927197)scale(0.13328 -0.13328)">
       <use xlink:href="#DejaVuSans-Oblique-3c0" transform="translate(0 0.3125)"/>
      </g>
     </g>
    </g>
    <g id="xtick_4">
     <g id="line2d_7">
      <path d="M 203.236364 388.8 
L 203.236364 0 
" clip-path="url(#p3cc52b2e7e)" style="fill: none; stroke: #b0b0b0; stroke-opacity: 0.3; stroke-width: 0.8; stroke-linecap: square"/>
     </g>
     <g id="line2d_8">
      <g>
       <use xlink:href="#mce4cc6da3d" x="203.236364" y="388.8" style="stroke: #000000; stroke-width: 0.8"/>
      </g>
     </g>
     <g id="text_4">
      <!-- $\frac{3\pi}{2}$ -->
      <g transform="translate(196.572364 408.86144)scale(0.13328 -0.13328)">
       <defs>
        <path id="DejaVuSans-33" d="M 2597 2516 
Q 3050 2419 3304 2112 
Q 3559 1806 3559 1356 
Q 3559 666 3084 287 
Q 2609 -91 1734 -91 
Q 1441 -91 1130 -33 
Q 819 25 488 141 
L 488 750 
Q 750 597 1062 519 
Q 1375 441 1716 441 
Q 2309 441 2620 675 
Q 2931 909 2931 1356 
Q 2931 1769 2642 2001 
Q 2353 2234 1838 2234 
L 1294 2234 
L 1294 2753 
L 1863 2753 
Q 2328 2753 2575 2939 
Q 2822 3125 2822 3475 
Q 2822 3834 2567 4026 
Q 2313 4219 1838 4219 
Q 1578 4219 1281 4162 
Q 984 4106 628 3988 
L 628 4550 
Q 988 4650 1302 4700 
Q 1616 4750 1894 4750 
Q 2613 4750 3031 4423 
Q 3450 4097 3450 3541 
Q 3450 3153 3228 2886 
Q 3006 2619 2597 2516 
z
" transform="scale(0.015625)"/>
       </defs>
       <use xlink:href="#DejaVuSans-33" transform="translate(0 46.046875)scale(0.7)"/>
       <use xlink:href="#DejaVuSans-Oblique-3c0" transform="translate(44.536133 46.046875)scale(0.7)"/>
       <use xlink:href="#DejaVuSans-32" transform="translate(21 -38.490625)scale(0.7)"/>
       <path d="M 0 19.7125 
L 0 25.9625 
L 86.679688 25.9625 
L 86.679688 19.7125 
L 0 19.7125 
z
"/>
      </g>
     </g>
    </g>
    <g id="xtick_5">
     <g id="line2d_9">
      <path d="M 237.6 388.8 
L 237.6 0 
" clip-path="url(#p3cc52b2e7e)" style="fill: none; stroke: #b0b0b0; stroke-opacity: 0.3; stroke-width: 0.8; stroke-linecap: square"/>
     </g>
     <g id="line2d_10">
      <g>
       <use xlink:href="#mce4cc6da3d" x="237.6" y="388.8" style="stroke: #000000; stroke-width: 0.8"/>
      </g>
     </g>
     <g id="text_5">
      <!-- $2\pi$ -->
      <g transform="translate(229.33664 405.927197)scale(0.13328 -0.13328)">
       <use xlink:href="#DejaVuSans-32" transform="translate(0 0.78125)"/>
       <use xlink:href="#DejaVuSans-Oblique-3c0" transform="translate(63.623047 0.78125)"/>
      </g>
     </g>
    </g>
    <g id="xtick_6">
     <g id="line2d_11">
      <path d="M 271.963636 388.8 
L 271.963636 0 
" clip-path="url(#p3cc52b2e7e)" style="fill: none; stroke: #b0b0b0; stroke-opacity: 0.3; stroke-width: 0.8; stroke-linecap: square"/>
     </g>
     <g id="line2d_12">
      <g>
       <use xlink:href="#mce4cc6da3d" x="271.963636" y="388.8" style="stroke: #000000; stroke-width: 0.8"/>
      </g>
     </g>
     <g id="text_6">
      <!-- $\frac{5\pi}{2}$ -->
      <g transform="translate(265.299636 408.72816)scale(0.13328 -0.13328)">
       <defs>
        <path id="DejaVuSans-35" d="M 691 4666 
L 3169 4666 
L 3169 4134 
L 1269 4134 
L 1269 2991 
Q 1406 3038 1543 3061 
Q 1681 3084 1819 3084 
Q 2600 3084 3056 2656 
Q 3513 2228 3513 1497 
Q 3513 744 3044 326 
Q 2575 -91 1722 -91 
Q 1428 -91 1123 -41 
Q 819 9 494 109 
L 494 744 
Q 775 591 1075 516 
Q 1375 441 1709 441 
Q 2250 441 2565 725 
Q 2881 1009 2881 1497 
Q 2881 1984 2565 2268 
Q 2250 2553 1709 2553 
Q 1456 2553 1204 2497 
Q 953 2441 691 2322 
L 691 4666 
z
" transform="scale(0.015625)"/>
       </defs>
       <use xlink:href="#DejaVuSans-35" transform="translate(0 45.965625)scale(0.7)"/>
       <use xlink:href="#DejaVuSans-Oblique-3c0" transform="translate(44.536133 45.965625)scale(0.7)"/>
       <use xlink:href="#DejaVuSans-32" transform="translate(21 -38.571875)scale(0.7)"/>
       <path d="M 0 19.63125 
L 0 25.88125 
L 86.679688 25.88125 
L 86.679688 19.63125 
L 0 19.63125 
z
"/>
      </g>
     </g>
    </g>
    <g id="xtick_7">
     <g id="line2d_13">
      <path d="M 306.327273 388.8 
L 306.327273 0 
" clip-path="url(#p3cc52b2e7e)" style="fill: none; stroke: #b0b0b0; stroke-opacity: 0.3; stroke-width: 0.8; stroke-linecap: square"/>
     </g>
     <g id="line2d_14">
      <g>
       <use xlink:href="#mce4cc6da3d" x="306.327273" y="388.8" style="stroke: #000000; stroke-width: 0.8"/>
      </g>
     </g>
     <g id="text_7">
      <!-- $3\pi$ -->
      <g transform="translate(298.063913 405.927197)scale(0.13328 -0.13328)">
       <use xlink:href="#DejaVuSans-33" transform="translate(0 0.78125)"/>
       <use xlink:href="#DejaVuSans-Oblique-3c0" transform="translate(63.623047 0.78125)"/>
      </g>
     </g>
    </g>
    <g id="xtick_8">
     <g id="line2d_15">
      <path d="M 340.690909 388.8 
L 340.690909 0 
" clip-path="url(#p3cc52b2e7e)" style="fill: none; stroke: #b0b0b0; stroke-opacity: 0.3; stroke-width: 0.8; stroke-linecap: square"/>
     </g>
     <g id="line2d_16">
      <g>
       <use xlink:href="#mce4cc6da3d" x="340.690909" y="388.8" style="stroke: #000000; stroke-width: 0.8"/>
      </g>
     </g>
     <g id="text_8">
      <!-- $\frac{7\pi}{2}$ -->
      <g transform="translate(334.026909 408.72816)scale(0.13328 -0.13328)">
       <defs>
        <path id="DejaVuSans-37" d="M 525 4666 
L 3525 4666 
L 3525 4397 
L 1831 0 
L 1172 0 
L 2766 4134 
L 525 4134 
L 525 4666 
z
" transform="scale(0.015625)"/>
       </defs>
       <use xlink:href="#DejaVuSans-37" transform="translate(0 45.965625)scale(0.7)"/>
       <use xlink:href="#DejaVuSans-Oblique-3c0" transform="translate(44.536133 45.965625)scale(0.7)"/>
       <use xlink:href="#DejaVuSans-32" transform="translate(21 -38.571875)scale(0.7)"/>
       <path d="M 0 19.63125 
L 0 25.88125 
L 86.679688 25.88125 
L 86.679688 19.63125 
L 0 19.63125 
z
"/>
      </g>
     </g>
    </g>
    <g id="xtick_9">
     <g id="line2d_17">
      <path d="M 375.054545 388.8 
L 375.054545 0 
" clip-path="url(#p3cc52b2e7e)" style="fill: none; stroke: #b0b0b0; stroke-opacity: 0.3; stroke-width: 0.8; stroke-linecap: square"/>
     </g>
     <g id="line2d_18">
      <g>
       <use xlink:href="#mce4cc6da3d" x="375.054545" y="388.8" style="stroke: #000000; stroke-width: 0.8"/>
      </g>
     </g>
     <g id="text_9">
      <!-- $4\pi$ -->
      <g transform="translate(366.791185 405.927197)scale(0.13328 -0.13328)">
       <defs>
        <path id="DejaVuSans-34" d="M 2419 4116 
L 825 1625 
L 2419 1625 
L 2419 4116 
z
M 2253 4666 
L 3047 4666 
L 3047 1625 
L 3713 1625 
L 3713 1100 
L 3047 1100 
L 3047 0 
L 2419 0 
L 2419 1100 
L 313 1100 
L 313 1709 
L 2253 4666 
z
" transform="scale(0.015625)"/>
       </defs>
       <use xlink:href="#DejaVuSans-34" transform="translate(0 0.09375)"/>
       <use xlink:href="#DejaVuSans-Oblique-3c0" transform="translate(63.623047 0.09375)"/>
      </g>
     </g>
    </g>
    <g id="text_10">
     <!-- $x$ -->
     <g transform="translate(232.8 430.35014)scale(0.16 -0.16)">
      <defs>
       <path id="DejaVuSans-Oblique-78" d="M 3841 3500 
L 2234 1784 
L 3219 0 
L 2559 0 
L 1819 1388 
L 531 0 
L -166 0 
L 1556 1844 
L 641 3500 
L 1300 3500 
L 1972 2234 
L 3144 3500 
L 3841 3500 
z
" transform="scale(0.015625)"/>
      </defs>
      <use xlink:href="#DejaVuSans-Oblique-78" transform="translate(0 0.3125)"/>
     </g>
    </g>
   </g>
   <g id="matplotlib.axis_2">
    <g id="ytick_1">
     <g id="line2d_19">
      <path d="M 86.4 371.127273 
L 388.8 371.127273 
" clip-path="url(#p3cc52b2e7e)" style="fill: none; stroke: #b0b0b0; stroke-opacity: 0.3; stroke-width: 0.8; stroke-linecap: square"/>
     </g>
     <g id="line2d_20">
      <defs>
       <path id="m9bfa505207" d="M 0 0 
L -3.5 0 
" style="stroke: #000000; stroke-width: 0.8"/>
      </defs>
      <g>
       <use xlink:href="#m9bfa505207" x="86.4" y="371.127273" style="stroke: #000000; stroke-width: 0.8"/>
      </g>
     </g>
     <g id="text_11">
      <!-- −1.00 -->
      <g transform="translate(38.555928 376.190871)scale(0.13328 -0.13328)">
       <defs>
        <path id="DejaVuSerif-2212" d="M 678 2259 
L 4684 2259 
L 4684 1753 
L 678 1753 
L 678 2259 
z
" transform="scale(0.015625)"/>
        <path id="DejaVuSerif-31" d="M 909 0 
L 909 331 
L 1722 331 
L 1722 4213 
L 781 3603 
L 781 4013 
L 1919 4750 
L 2350 4750 
L 2350 331 
L 3163 331 
L 3163 0 
L 909 0 
z
" transform="scale(0.015625)"/>
        <path id="DejaVuSerif-2e" d="M 603 325 
Q 603 500 722 622 
Q 841 744 1019 744 
Q 1191 744 1312 622 
Q 1434 500 1434 325 
Q 1434 153 1312 31 
Q 1191 -91 1019 -91 
Q 841 -91 722 29 
Q 603 150 603 325 
z
" transform="scale(0.015625)"/>
        <path id="DejaVuSerif-30" d="M 2034 219 
Q 2513 219 2750 744 
Q 2988 1269 2988 2328 
Q 2988 3391 2750 3916 
Q 2513 4441 2034 4441 
Q 1556 4441 1318 3916 
Q 1081 3391 1081 2328 
Q 1081 1269 1318 744 
Q 1556 219 2034 219 
z
M 2034 -91 
Q 1275 -91 848 546 
Q 422 1184 422 2328 
Q 422 3475 848 4112 
Q 1275 4750 2034 4750 
Q 2797 4750 3222 4112 
Q 3647 3475 3647 2328 
Q 3647 1184 3222 546 
Q 2797 -91 2034 -91 
z
" transform="scale(0.015625)"/>
       </defs>
       <use xlink:href="#DejaVuSerif-2212"/>
       <use xlink:href="#DejaVuSerif-31" x="83.789062"/>
       <use xlink:href="#DejaVuSerif-2e" x="147.412109"/>
       <use xlink:href="#DejaVuSerif-30" x="179.199219"/>
       <use xlink:href="#DejaVuSerif-30" x="242.822266"/>
      </g>
     </g>
    </g>
    <g id="ytick_2">
     <g id="line2d_21">
      <path d="M 86.4 326.945455 
L 388.8 326.945455 
" clip-path="url(#p3cc52b2e7e)" style="fill: none; stroke: #b0b0b0; stroke-opacity: 0.3; stroke-width: 0.8; stroke-linecap: square"/>
     </g>
     <g id="line2d_22">
      <g>
       <use xlink:href="#m9bfa505207" x="86.4" y="326.945455" style="stroke: #000000; stroke-width: 0.8"/>
      </g>
     </g>
     <g id="text_12">
      <!-- −0.75 -->
      <g transform="translate(38.555928 332.009053)scale(0.13328 -0.13328)">
       <defs>
        <path id="DejaVuSerif-37" d="M 3609 4347 
L 1784 0 
L 1319 0 
L 3059 4153 
L 903 4153 
L 903 3578 
L 538 3578 
L 538 4666 
L 3609 4666 
L 3609 4347 
z
" transform="scale(0.015625)"/>
        <path id="DejaVuSerif-35" d="M 3219 4666 
L 3219 4153 
L 1081 4153 
L 1081 2816 
Q 1244 2928 1461 2984 
Q 1678 3041 1947 3041 
Q 2703 3041 3140 2622 
Q 3578 2203 3578 1478 
Q 3578 738 3136 323 
Q 2694 -91 1894 -91 
Q 1572 -91 1234 -12 
Q 897 66 544 225 
L 544 1131 
L 897 1131 
Q 925 688 1179 453 
Q 1434 219 1894 219 
Q 2388 219 2653 544 
Q 2919 869 2919 1478 
Q 2919 2084 2655 2407 
Q 2391 2731 1894 2731 
Q 1613 2731 1398 2631 
Q 1184 2531 1019 2322 
L 750 2322 
L 750 4666 
L 3219 4666 
z
" transform="scale(0.015625)"/>
       </defs>
       <use xlink:href="#DejaVuSerif-2212"/>
       <use xlink:href="#DejaVuSerif-30" x="83.789062"/>
       <use xlink:href="#DejaVuSerif-2e" x="147.412109"/>
       <use xlink:href="#DejaVuSerif-37" x="179.199219"/>
       <use xlink:href="#DejaVuSerif-35" x="242.822266"/>
      </g>
     </g>
    </g>
    <g id="ytick_3">
     <g id="line2d_23">
      <path d="M 86.4 282.763636 
L 388.8 282.763636 
" clip-path="url(#p3cc52b2e7e)" style="fill: none; stroke: #b0b0b0; stroke-opacity: 0.3; stroke-width: 0.8; stroke-linecap: square"/>
     </g>
     <g id="line2d_24">
      <g>
       <use xlink:href="#m9bfa505207" x="86.4" y="282.763636" style="stroke: #000000; stroke-width: 0.8"/>
      </g>
     </g>
     <g id="text_13">
      <!-- −0.50 -->
      <g transform="translate(38.555928 287.827235)scale(0.13328 -0.13328)">
       <use xlink:href="#DejaVuSerif-2212"/>
       <use xlink:href="#DejaVuSerif-30" x="83.789062"/>
       <use xlink:href="#DejaVuSerif-2e" x="147.412109"/>
       <use xlink:href="#DejaVuSerif-35" x="179.199219"/>
       <use xlink:href="#DejaVuSerif-30" x="242.822266"/>
      </g>
     </g>
    </g>
    <g id="ytick_4">
     <g id="line2d_25">
      <path d="M 86.4 238.581818 
L 388.8 238.581818 
" clip-path="url(#p3cc52b2e7e)" style="fill: none; stroke: #b0b0b0; stroke-opacity: 0.3; stroke-width: 0.8; stroke-linecap: square"/>
     </g>
     <g id="line2d_26">
      <g>
       <use xlink:href="#m9bfa505207" x="86.4" y="238.581818" style="stroke: #000000; stroke-width: 0.8"/>
      </g>
     </g>
     <g id="text_14">
      <!-- −0.25 -->
      <g transform="translate(38.555928 243.645417)scale(0.13328 -0.13328)">
       <defs>
        <path id="DejaVuSerif-32" d="M 819 3553 
L 469 3553 
L 469 4384 
Q 803 4563 1142 4656 
Q 1481 4750 1806 4750 
Q 2534 4750 2956 4397 
Q 3378 4044 3378 3438 
Q 3378 2753 2422 1800 
Q 2347 1728 2309 1691 
L 1131 513 
L 3078 513 
L 3078 1088 
L 3444 1088 
L 3444 0 
L 434 0 
L 434 341 
L 1850 1753 
Q 2319 2222 2519 2614 
Q 2719 3006 2719 3438 
Q 2719 3909 2473 4175 
Q 2228 4441 1797 4441 
Q 1350 4441 1106 4219 
Q 863 3997 819 3553 
z
" transform="scale(0.015625)"/>
       </defs>
       <use xlink:href="#DejaVuSerif-2212"/>
       <use xlink:href="#DejaVuSerif-30" x="83.789062"/>
       <use xlink:href="#DejaVuSerif-2e" x="147.412109"/>
       <use xlink:href="#DejaVuSerif-32" x="179.199219"/>
       <use xlink:href="#DejaVuSerif-35" x="242.822266"/>
      </g>
     </g>
    </g>
    <g id="ytick_5">
     <g id="line2d_27">
      <path d="M 86.4 194.4 
L 388.8 194.4 
" clip-path="url(#p3cc52b2e7e)" style="fill: none; stroke: #b0b0b0; stroke-opacity: 0.3; stroke-width: 0.8; stroke-linecap: square"/>
     </g>
     <g id="line2d_28">
      <g>
       <use xlink:href="#m9bfa505207" x="86.4" y="194.4" style="stroke: #000000; stroke-width: 0.8"/>
      </g>
     </g>
     <g id="text_15">
      <!-- 0.00 -->
      <g transform="translate(49.724375 199.463599)scale(0.13328 -0.13328)">
       <use xlink:href="#DejaVuSerif-30"/>
       <use xlink:href="#DejaVuSerif-2e" x="63.623047"/>
       <use xlink:href="#DejaVuSerif-30" x="95.410156"/>
       <use xlink:href="#DejaVuSerif-30" x="159.033203"/>
      </g>
     </g>
    </g>
    <g id="ytick_6">
     <g id="line2d_29">
      <path d="M 86.4 150.218182 
L 388.8 150.218182 
" clip-path="url(#p3cc52b2e7e)" style="fill: none; stroke: #b0b0b0; stroke-opacity: 0.3; stroke-width: 0.8; stroke-linecap: square"/>
     </g>
     <g id="line2d_30">
      <g>
       <use xlink:href="#m9bfa505207" x="86.4" y="150.218182" style="stroke: #000000; stroke-width: 0.8"/>
      </g>
     </g>
     <g id="text_16">
      <!-- 0.25 -->
      <g transform="translate(49.724375 155.281781)scale(0.13328 -0.13328)">
       <use xlink:href="#DejaVuSerif-30"/>
       <use xlink:href="#DejaVuSerif-2e" x="63.623047"/>
       <use xlink:href="#DejaVuSerif-32" x="95.410156"/>
       <use xlink:href="#DejaVuSerif-35" x="159.033203"/>
      </g>
     </g>
    </g>
    <g id="ytick_7">
     <g id="line2d_31">
      <path d="M 86.4 106.036364 
L 388.8 106.036364 
" clip-path="url(#p3cc52b2e7e)" style="fill: none; stroke: #b0b0b0; stroke-opacity: 0.3; stroke-width: 0.8; stroke-linecap: square"/>
     </g>
     <g id="line2d_32">
      <g>
       <use xlink:href="#m9bfa505207" x="86.4" y="106.036364" style="stroke: #000000; stroke-width: 0.8"/>
      </g>
     </g>
     <g id="text_17">
      <!-- 0.50 -->
      <g transform="translate(49.724375 111.099962)scale(0.13328 -0.13328)">
       <use xlink:href="#DejaVuSerif-30"/>
       <use xlink:href="#DejaVuSerif-2e" x="63.623047"/>
       <use xlink:href="#DejaVuSerif-35" x="95.410156"/>
       <use xlink:href="#DejaVuSerif-30" x="159.033203"/>
      </g>
     </g>
    </g>
    <g id="ytick_8">
     <g id="line2d_33">
      <path d="M 86.4 61.854545 
L 388.8 61.854545 
" clip-path="url(#p3cc52b2e7e)" style="fill: none; stroke: #b0b0b0; stroke-opacity: 0.3; stroke-width: 0.8; stroke-linecap: square"/>
     </g>
     <g id="line2d_34">
      <g>
       <use xlink:href="#m9bfa505207" x="86.4" y="61.854545" style="stroke: #000000; stroke-width: 0.8"/>
      </g>
     </g>
     <g id="text_18">
      <!-- 0.75 -->
      <g transform="translate(49.724375 66.918144)scale(0.13328 -0.13328)">
       <use xlink:href="#DejaVuSerif-30"/>
       <use xlink:href="#DejaVuSerif-2e" x="63.623047"/>
       <use xlink:href="#DejaVuSerif-37" x="95.410156"/>
       <use xlink:href="#DejaVuSerif-35" x="159.033203"/>
      </g>
     </g>
    </g>
    <g id="ytick_9">
     <g id="line2d_35">
      <path d="M 86.4 17.672727 
L 388.8 17.672727 
" clip-path="url(#p3cc52b2e7e)" style="fill: none; stroke: #b0b0b0; stroke-opacity: 0.3; stroke-width: 0.8; stroke-linecap: square"/>
     </g>
     <g id="line2d_36">
      <g>
       <use xlink:href="#m9bfa505207" x="86.4" y="17.672727" style="stroke: #000000; stroke-width: 0.8"/>
      </g>
     </g>
     <g id="text_19">
      <!-- 1.00 -->
      <g transform="translate(49.724375 22.736326)scale(0.13328 -0.13328)">
       <use xlink:href="#DejaVuSerif-31"/>
       <use xlink:href="#DejaVuSerif-2e" x="63.623047"/>
       <use xlink:href="#DejaVuSerif-30" x="95.410156"/>
       <use xlink:href="#DejaVuSerif-30" x="159.033203"/>
      </g>
     </g>
    </g>
    <g id="text_20">
     <!-- $\sin (x)$ -->
     <g transform="translate(31.228428 216.88)rotate(-90)scale(0.16 -0.16)">
      <defs>
       <path id="DejaVuSans-73" d="M 2834 3397 
L 2834 2853 
Q 2591 2978 2328 3040 
Q 2066 3103 1784 3103 
Q 1356 3103 1142 2972 
Q 928 2841 928 2578 
Q 928 2378 1081 2264 
Q 1234 2150 1697 2047 
L 1894 2003 
Q 2506 1872 2764 1633 
Q 3022 1394 3022 966 
Q 3022 478 2636 193 
Q 2250 -91 1575 -91 
Q 1294 -91 989 -36 
Q 684 19 347 128 
L 347 722 
Q 666 556 975 473 
Q 1284 391 1588 391 
Q 1994 391 2212 530 
Q 2431 669 2431 922 
Q 2431 1156 2273 1281 
Q 2116 1406 1581 1522 
L 1381 1569 
Q 847 1681 609 1914 
Q 372 2147 372 2553 
Q 372 3047 722 3315 
Q 1072 3584 1716 3584 
Q 2034 3584 2315 3537 
Q 2597 3491 2834 3397 
z
" transform="scale(0.015625)"/>
       <path id="DejaVuSans-69" d="M 603 3500 
L 1178 3500 
L 1178 0 
L 603 0 
L 603 3500 
z
M 603 4863 
L 1178 4863 
L 1178 4134 
L 603 4134 
L 603 4863 
z
" transform="scale(0.015625)"/>
       <path id="DejaVuSans-6e" d="M 3513 2113 
L 3513 0 
L 2938 0 
L 2938 2094 
Q 2938 2591 2744 2837 
Q 2550 3084 2163 3084 
Q 1697 3084 1428 2787 
Q 1159 2491 1159 1978 
L 1159 0 
L 581 0 
L 581 3500 
L 1159 3500 
L 1159 2956 
Q 1366 3272 1645 3428 
Q 1925 3584 2291 3584 
Q 2894 3584 3203 3211 
Q 3513 2838 3513 2113 
z
" transform="scale(0.015625)"/>
       <path id="DejaVuSans-28" d="M 1984 4856 
Q 1566 4138 1362 3434 
Q 1159 2731 1159 2009 
Q 1159 1288 1364 580 
Q 1569 -128 1984 -844 
L 1484 -844 
Q 1016 -109 783 600 
Q 550 1309 550 2009 
Q 550 2706 781 3412 
Q 1013 4119 1484 4856 
L 1984 4856 
z
" transform="scale(0.015625)"/>
       <path id="DejaVuSans-29" d="M 513 4856 
L 1013 4856 
Q 1481 4119 1714 3412 
Q 1947 2706 1947 2009 
Q 1947 1309 1714 600 
Q 1481 -109 1013 -844 
L 513 -844 
Q 928 -128 1133 580 
Q 1338 1288 1338 2009 
Q 1338 2731 1133 3434 
Q 928 4138 513 4856 
z
" transform="scale(0.015625)"/>
      </defs>
      <use xlink:href="#DejaVuSans-73" transform="translate(0 0.015625)"/>
      <use xlink:href="#DejaVuSans-69" transform="translate(52.099609 0.015625)"/>
      <use xlink:href="#DejaVuSans-6e" transform="translate(79.882812 0.015625)"/>
      <use xlink:href="#DejaVuSans-28" transform="translate(143.261719 0.015625)"/>
      <use xlink:href="#DejaVuSans-Oblique-78" transform="translate(182.275391 0.015625)"/>
      <use xlink:href="#DejaVuSans-29" transform="translate(241.455078 0.015625)"/>
     </g>
    </g>
   </g>
   <g id="line2d_37">
    <path d="M 100.145455 194.4 
L 106.743273 141.904651 
L 110.317091 115.158457 
L 113.341091 94.148106 
L 115.815273 78.36339 
L 118.014545 65.571363 
L 120.213818 54.080242 
L 122.138182 45.184228 
L 123.787636 38.475078 
L 125.437091 32.651924 
L 126.811636 28.500126 
L 128.186182 25.003058 
L 129.560727 22.174524 
L 130.660364 20.40063 
L 131.76 19.066275 
L 132.584727 18.356024 
L 133.409455 17.895941 
L 134.234182 17.686681 
L 135.058909 17.72854 
L 135.883636 18.021458 
L 136.708364 18.56502 
L 137.533091 19.358453 
L 138.632727 20.803053 
L 139.732364 22.686174 
L 140.832 25.003058 
L 142.206545 28.500126 
L 143.581091 32.651924 
L 145.230545 38.475078 
L 146.88 45.184228 
L 148.804364 54.080242 
L 150.728727 64.061318 
L 152.928 76.697539 
L 155.402182 92.327151 
L 158.151273 111.213778 
L 161.450182 135.58171 
L 165.573818 167.851041 
L 177.394909 261.517324 
L 180.693818 285.315496 
L 183.442909 303.592644 
L 185.917091 318.577413 
L 188.116364 330.570704 
L 190.040727 339.94067 
L 191.965091 348.185202 
L 193.614545 354.307617 
L 195.264 359.521406 
L 196.638545 363.150607 
L 198.013091 366.113826 
L 199.112727 367.996947 
L 200.212364 369.441547 
L 201.037091 370.23498 
L 201.861818 370.778542 
L 202.686545 371.07146 
L 203.511273 371.113319 
L 204.336 370.904059 
L 205.160727 370.443976 
L 205.985455 369.733725 
L 206.810182 368.774316 
L 207.909818 367.10993 
L 209.009455 365.009264 
L 210.109091 362.477624 
L 211.483636 358.716863 
L 212.858182 354.307617 
L 214.507636 348.185202 
L 216.157091 341.188948 
L 218.081455 331.975519 
L 220.005818 321.698249 
L 222.205091 308.752435 
L 224.679273 292.815109 
L 227.428364 273.641543 
L 230.727273 249.011731 
L 235.125818 214.344801 
L 245.297455 133.492196 
L 248.596364 109.260987 
L 251.345455 90.522315 
L 253.819636 75.050275 
L 256.018909 62.571856 
L 258.218182 51.424633 
L 260.142545 42.851653 
L 261.792 36.433843 
L 263.441455 30.913628 
L 264.816 27.0219 
L 266.190545 23.790736 
L 267.290182 21.69007 
L 268.389818 20.025684 
L 269.489455 18.801783 
L 270.314182 18.174827 
L 271.138909 17.798297 
L 271.963636 17.672727 
L 272.788364 17.798297 
L 273.613091 18.174827 
L 274.437818 18.801783 
L 275.262545 19.678273 
L 276.362182 21.232889 
L 277.461818 23.22494 
L 278.561455 25.649393 
L 279.936 29.278594 
L 281.310545 33.559454 
L 282.96 39.53271 
L 284.609455 46.385954 
L 286.533818 55.44139 
L 288.458182 65.571363 
L 290.657455 78.36339 
L 293.131636 94.148106 
L 295.880727 113.179705 
L 299.179636 137.680511 
L 303.578182 172.250199 
L 314.299636 257.387699 
L 317.598545 281.478359 
L 320.347636 300.066117 
L 322.821818 315.378143 
L 325.021091 327.696789 
L 326.945455 337.375367 
L 328.869818 345.948347 
L 330.519273 352.366157 
L 332.168727 357.886372 
L 333.543273 361.7781 
L 334.917818 365.009264 
L 336.017455 367.10993 
L 337.117091 368.774316 
L 338.216727 369.998217 
L 339.041455 370.625173 
L 339.866182 371.001703 
L 340.690909 371.127273 
L 341.515636 371.001703 
L 342.340364 370.625173 
L 343.165091 369.998217 
L 343.989818 369.121727 
L 345.089455 367.567111 
L 346.189091 365.57506 
L 347.288727 363.150607 
L 348.663273 359.521406 
L 350.037818 355.240546 
L 351.687273 349.26729 
L 353.336727 342.414046 
L 355.261091 333.35861 
L 357.185455 323.228637 
L 359.384727 310.43661 
L 361.858909 294.651894 
L 364.608 275.620295 
L 367.906909 251.119489 
L 372.305455 216.549801 
L 375.054545 194.4 
L 375.054545 194.4 
" clip-path="url(#p3cc52b2e7e)" style="fill: none; stroke: #000000; stroke-width: 1.5; stroke-linecap: square"/>
   </g>
   <g id="line2d_38">
    <path d="M 237.6 388.8 
L 237.6 194.4 
" clip-path="url(#p3cc52b2e7e)" style="fill: none; stroke-dasharray: 5.55,2.4; stroke-dashoffset: 0; stroke: #000000; stroke-width: 1.5"/>
   </g>
   <g id="line2d_39">
    <path d="M 168.872727 194.4 
L 306.327273 194.4 
L 306.327273 194.4 
" clip-path="url(#p3cc52b2e7e)" style="fill: none; stroke-dasharray: 5.55,2.4; stroke-dashoffset: 0; stroke: #1f77b4; stroke-width: 1.5"/>
   </g>
   <g id="line2d_40">
    <path d="M 237.6 194.4 
" clip-path="url(#p3cc52b2e7e)" style="fill: none; stroke: #000000; stroke-width: 1.5; stroke-linecap: square"/>
    <defs>
     <path id="mfd2018bf51" d="M 0 3 
C 0.795609 3 1.55874 2.683901 2.12132 2.12132 
C 2.683901 1.55874 3 0.795609 3 0 
C 3 -0.795609 2.683901 -1.55874 2.12132 -2.12132 
C 1.55874 -2.683901 0.795609 -3 0 -3 
C -0.795609 -3 -1.55874 -2.683901 -2.12132 -2.12132 
C -2.683901 -1.55874 -3 -0.795609 -3 0 
C -3 0.795609 -2.683901 1.55874 -2.12132 2.12132 
C -1.55874 2.683901 -0.795609 3 0 3 
z
" style="stroke: #000000"/>
    </defs>
    <g clip-path="url(#p3cc52b2e7e)">
     <use xlink:href="#mfd2018bf51" x="237.6" y="194.4" style="stroke: #000000"/>
    </g>
   </g>
   <g id="line2d_41">
    <path d="M 306.327273 194.4 
" clip-path="url(#p3cc52b2e7e)" style="fill: none; stroke: #17becf; stroke-width: 1.5; stroke-linecap: square"/>
    <defs>
     <path id="m8296981d2e" d="M 0 3 
C 0.795609 3 1.55874 2.683901 2.12132 2.12132 
C 2.683901 1.55874 3 0.795609 3 0 
C 3 -0.795609 2.683901 -1.55874 2.12132 -2.12132 
C 1.55874 -2.683901 0.795609 -3 0 -3 
C -0.795609 -3 -1.55874 -2.683901 -2.12132 -2.12132 
C -2.683901 -1.55874 -3 -0.795609 -3 0 
C -3 0.795609 -2.683901 1.55874 -2.12132 2.12132 
C -1.55874 2.683901 -0.795609 3 0 3 
z
" style="stroke: #17becf"/>
    </defs>
    <g clip-path="url(#p3cc52b2e7e)">
     <use xlink:href="#m8296981d2e" x="306.327273" y="194.4" style="fill: #17becf; stroke: #17becf"/>
    </g>
   </g>
   <g id="line2d_42">
    <path d="M 168.872727 194.4 
" clip-path="url(#p3cc52b2e7e)" style="fill: none; stroke: #17becf; stroke-width: 1.5; stroke-linecap: square"/>
    <g clip-path="url(#p3cc52b2e7e)">
     <use xlink:href="#m8296981d2e" x="168.872727" y="194.4" style="fill: #17becf; stroke: #17becf"/>
    </g>
   </g>
   <g id="patch_3">
    <path d="M 86.4 388.8 
L 86.4 -0 
" style="fill: none; stroke: #000000; stroke-width: 2; stroke-linejoin: miter; stroke-linecap: square"/>
   </g>
   <g id="patch_4">
    <path d="M 86.4 388.8 
L 388.8 388.8 
" style="fill: none; stroke: #000000; stroke-width: 2; stroke-linejoin: miter; stroke-linecap: square"/>
   </g>
   <g id="text_21">
    <!-- $f(x_0) + \pi$ -->
    <g transform="translate(310.702587 176.727273)scale(0.16 -0.16)">
     <defs>
      <path id="DejaVuSans-Oblique-66" d="M 3059 4863 
L 2969 4384 
L 2419 4384 
Q 2106 4384 1964 4261 
Q 1822 4138 1753 3809 
L 1691 3500 
L 2638 3500 
L 2553 3053 
L 1606 3053 
L 1013 0 
L 434 0 
L 1031 3053 
L 481 3053 
L 563 3500 
L 1113 3500 
L 1159 3744 
Q 1278 4363 1576 4613 
Q 1875 4863 2516 4863 
L 3059 4863 
z
" transform="scale(0.015625)"/>
      <path id="DejaVuSans-2b" d="M 2944 4013 
L 2944 2272 
L 4684 2272 
L 4684 1741 
L 2944 1741 
L 2944 0 
L 2419 0 
L 2419 1741 
L 678 1741 
L 678 2272 
L 2419 2272 
L 2419 4013 
L 2944 4013 
z
" transform="scale(0.015625)"/>
     </defs>
     <use xlink:href="#DejaVuSans-Oblique-66" transform="translate(0 0.015625)"/>
     <use xlink:href="#DejaVuSans-28" transform="translate(35.205078 0.015625)"/>
     <use xlink:href="#DejaVuSans-Oblique-78" transform="translate(74.21875 0.015625)"/>
     <use xlink:href="#DejaVuSans-30" transform="translate(133.398438 -16.390625)scale(0.7)"/>
     <use xlink:href="#DejaVuSans-29" transform="translate(180.668945 0.015625)"/>
     <use xlink:href="#DejaVuSans-2b" transform="translate(239.165039 0.015625)"/>
     <use xlink:href="#DejaVuSans-Oblique-3c0" transform="translate(342.436523 0.015625)"/>
    </g>
   </g>
   <g id="text_22">
    <!-- $f(x_0) - \pi$ -->
    <g transform="translate(173.248041 176.727273)scale(0.16 -0.16)">
     <defs>
      <path id="DejaVuSans-2212" d="M 678 2272 
L 4684 2272 
L 4684 1741 
L 678 1741 
L 678 2272 
z
" transform="scale(0.015625)"/>
     </defs>
     <use xlink:href="#DejaVuSans-Oblique-66" transform="translate(0 0.015625)"/>
     <use xlink:href="#DejaVuSans-28" transform="translate(35.205078 0.015625)"/>
     <use xlink:href="#DejaVuSans-Oblique-78" transform="translate(74.21875 0.015625)"/>
     <use xlink:href="#DejaVuSans-30" transform="translate(133.398438 -16.390625)scale(0.7)"/>
     <use xlink:href="#DejaVuSans-29" transform="translate(180.668945 0.015625)"/>
     <use xlink:href="#DejaVuSans-2212" transform="translate(239.165039 0.015625)"/>
     <use xlink:href="#DejaVuSans-Oblique-3c0" transform="translate(342.436523 0.015625)"/>
    </g>
   </g>
   <g id="text_23">
    <!-- $x_0$ -->
    <g transform="translate(241.975314 212.072727)scale(0.16 -0.16)">
     <use xlink:href="#DejaVuSans-Oblique-78" transform="translate(0 0.3125)"/>
     <use xlink:href="#DejaVuSans-30" transform="translate(59.179688 -16.09375)scale(0.7)"/>
    </g>
   </g>
  </g>
  <g id="axes_2">
   <g id="patch_5">
    <path d="M 475.2 388.8 
L 777.6 388.8 
L 777.6 0 
L 475.2 0 
z
" style="fill: #ffffff"/>
   </g>
   <g id="matplotlib.axis_3">
    <g id="xtick_10">
     <g id="line2d_43">
      <path d="M 475.2 388.8 
L 475.2 0 
" clip-path="url(#p54c4921722)" style="fill: none; stroke: #b0b0b0; stroke-opacity: 0.3; stroke-width: 0.8; stroke-linecap: square"/>
     </g>
     <g id="line2d_44">
      <g>
       <use xlink:href="#mce4cc6da3d" x="475.2" y="388.8" style="stroke: #000000; stroke-width: 0.8"/>
      </g>
     </g>
     <g id="text_24">
      <!-- $0$ -->
      <g transform="translate(470.93504 405.927197)scale(0.13328 -0.13328)">
       <use xlink:href="#DejaVuSans-30" transform="translate(0 0.78125)"/>
      </g>
     </g>
    </g>
    <g id="xtick_11">
     <g id="line2d_45">
      <path d="M 513 388.8 
L 513 0 
" clip-path="url(#p54c4921722)" style="fill: none; stroke: #b0b0b0; stroke-opacity: 0.3; stroke-width: 0.8; stroke-linecap: square"/>
     </g>
     <g id="line2d_46">
      <g>
       <use xlink:href="#mce4cc6da3d" x="513" y="388.8" style="stroke: #000000; stroke-width: 0.8"/>
      </g>
     </g>
     <g id="text_25">
      <!-- $\frac{\pi}{2}$ -->
      <g transform="translate(509.13488 406.99552)scale(0.13328 -0.13328)">
       <use xlink:href="#DejaVuSans-Oblique-3c0" transform="translate(1 45.71875)scale(0.7)"/>
       <use xlink:href="#DejaVuSans-32" transform="translate(0 -38.81875)scale(0.7)"/>
       <path d="M 0 19.384375 
L 0 25.634375 
L 44.536133 25.634375 
L 44.536133 19.384375 
L 0 19.384375 
z
"/>
      </g>
     </g>
    </g>
    <g id="xtick_12">
     <g id="line2d_47">
      <path d="M 550.8 388.8 
L 550.8 0 
" clip-path="url(#p54c4921722)" style="fill: none; stroke: #b0b0b0; stroke-opacity: 0.3; stroke-width: 0.8; stroke-linecap: square"/>
     </g>
     <g id="line2d_48">
      <g>
       <use xlink:href="#mce4cc6da3d" x="550.8" y="388.8" style="stroke: #000000; stroke-width: 0.8"/>
      </g>
     </g>
     <g id="text_26">
      <!-- $\pi$ -->
      <g transform="translate(546.73496 405.927197)scale(0.13328 -0.13328)">
       <use xlink:href="#DejaVuSans-Oblique-3c0" transform="translate(0 0.3125)"/>
      </g>
     </g>
    </g>
    <g id="xtick_13">
     <g id="line2d_49">
      <path d="M 588.6 388.8 
L 588.6 0 
" clip-path="url(#p54c4921722)" style="fill: none; stroke: #b0b0b0; stroke-opacity: 0.3; stroke-width: 0.8; stroke-linecap: square"/>
     </g>
     <g id="line2d_50">
      <g>
       <use xlink:href="#mce4cc6da3d" x="588.6" y="388.8" style="stroke: #000000; stroke-width: 0.8"/>
      </g>
     </g>
     <g id="text_27">
      <!-- $\frac{3\pi}{2}$ -->
      <g transform="translate(581.936 408.86144)scale(0.13328 -0.13328)">
       <use xlink:href="#DejaVuSans-33" transform="translate(0 46.046875)scale(0.7)"/>
       <use xlink:href="#DejaVuSans-Oblique-3c0" transform="translate(44.536133 46.046875)scale(0.7)"/>
       <use xlink:href="#DejaVuSans-32" transform="translate(21 -38.490625)scale(0.7)"/>
       <path d="M 0 19.7125 
L 0 25.9625 
L 86.679688 25.9625 
L 86.679688 19.7125 
L 0 19.7125 
z
"/>
      </g>
     </g>
    </g>
    <g id="xtick_14">
     <g id="line2d_51">
      <path d="M 626.4 388.8 
L 626.4 0 
" clip-path="url(#p54c4921722)" style="fill: none; stroke: #b0b0b0; stroke-opacity: 0.3; stroke-width: 0.8; stroke-linecap: square"/>
     </g>
     <g id="line2d_52">
      <g>
       <use xlink:href="#mce4cc6da3d" x="626.4" y="388.8" style="stroke: #000000; stroke-width: 0.8"/>
      </g>
     </g>
     <g id="text_28">
      <!-- $2\pi$ -->
      <g transform="translate(618.13664 405.927197)scale(0.13328 -0.13328)">
       <use xlink:href="#DejaVuSans-32" transform="translate(0 0.78125)"/>
       <use xlink:href="#DejaVuSans-Oblique-3c0" transform="translate(63.623047 0.78125)"/>
      </g>
     </g>
    </g>
    <g id="xtick_15">
     <g id="line2d_53">
      <path d="M 664.2 388.8 
L 664.2 0 
" clip-path="url(#p54c4921722)" style="fill: none; stroke: #b0b0b0; stroke-opacity: 0.3; stroke-width: 0.8; stroke-linecap: square"/>
     </g>
     <g id="line2d_54">
      <g>
       <use xlink:href="#mce4cc6da3d" x="664.2" y="388.8" style="stroke: #000000; stroke-width: 0.8"/>
      </g>
     </g>
     <g id="text_29">
      <!-- $\frac{5\pi}{2}$ -->
      <g transform="translate(657.536 408.72816)scale(0.13328 -0.13328)">
       <use xlink:href="#DejaVuSans-35" transform="translate(0 45.965625)scale(0.7)"/>
       <use xlink:href="#DejaVuSans-Oblique-3c0" transform="translate(44.536133 45.965625)scale(0.7)"/>
       <use xlink:href="#DejaVuSans-32" transform="translate(21 -38.571875)scale(0.7)"/>
       <path d="M 0 19.63125 
L 0 25.88125 
L 86.679688 25.88125 
L 86.679688 19.63125 
L 0 19.63125 
z
"/>
      </g>
     </g>
    </g>
    <g id="xtick_16">
     <g id="line2d_55">
      <path d="M 702 388.8 
L 702 0 
" clip-path="url(#p54c4921722)" style="fill: none; stroke: #b0b0b0; stroke-opacity: 0.3; stroke-width: 0.8; stroke-linecap: square"/>
     </g>
     <g id="line2d_56">
      <g>
       <use xlink:href="#mce4cc6da3d" x="702" y="388.8" style="stroke: #000000; stroke-width: 0.8"/>
      </g>
     </g>
     <g id="text_30">
      <!-- $3\pi$ -->
      <g transform="translate(693.73664 405.927197)scale(0.13328 -0.13328)">
       <use xlink:href="#DejaVuSans-33" transform="translate(0 0.78125)"/>
       <use xlink:href="#DejaVuSans-Oblique-3c0" transform="translate(63.623047 0.78125)"/>
      </g>
     </g>
    </g>
    <g id="xtick_17">
     <g id="line2d_57">
      <path d="M 739.8 388.8 
L 739.8 0 
" clip-path="url(#p54c4921722)" style="fill: none; stroke: #b0b0b0; stroke-opacity: 0.3; stroke-width: 0.8; stroke-linecap: square"/>
     </g>
     <g id="line2d_58">
      <g>
       <use xlink:href="#mce4cc6da3d" x="739.8" y="388.8" style="stroke: #000000; stroke-width: 0.8"/>
      </g>
     </g>
     <g id="text_31">
      <!-- $\frac{7\pi}{2}$ -->
      <g transform="translate(733.136 408.72816)scale(0.13328 -0.13328)">
       <use xlink:href="#DejaVuSans-37" transform="translate(0 45.965625)scale(0.7)"/>
       <use xlink:href="#DejaVuSans-Oblique-3c0" transform="translate(44.536133 45.965625)scale(0.7)"/>
       <use xlink:href="#DejaVuSans-32" transform="translate(21 -38.571875)scale(0.7)"/>
       <path d="M 0 19.63125 
L 0 25.88125 
L 86.679688 25.88125 
L 86.679688 19.63125 
L 0 19.63125 
z
"/>
      </g>
     </g>
    </g>
    <g id="xtick_18">
     <g id="line2d_59">
      <path d="M 777.6 388.8 
L 777.6 0 
" clip-path="url(#p54c4921722)" style="fill: none; stroke: #b0b0b0; stroke-opacity: 0.3; stroke-width: 0.8; stroke-linecap: square"/>
     </g>
     <g id="line2d_60">
      <g>
       <use xlink:href="#mce4cc6da3d" x="777.6" y="388.8" style="stroke: #000000; stroke-width: 0.8"/>
      </g>
     </g>
     <g id="text_32">
      <!-- $4\pi$ -->
      <g transform="translate(769.33664 405.927197)scale(0.13328 -0.13328)">
       <use xlink:href="#DejaVuSans-34" transform="translate(0 0.09375)"/>
       <use xlink:href="#DejaVuSans-Oblique-3c0" transform="translate(63.623047 0.09375)"/>
      </g>
     </g>
    </g>
    <g id="text_33">
     <!-- $x$ -->
     <g transform="translate(621.6 430.35014)scale(0.16 -0.16)">
      <use xlink:href="#DejaVuSans-Oblique-78" transform="translate(0 0.3125)"/>
     </g>
    </g>
   </g>
   <g id="matplotlib.axis_4">
    <g id="ytick_10">
     <g id="line2d_61">
      <path d="M 475.2 371.127273 
L 777.6 371.127273 
" clip-path="url(#p54c4921722)" style="fill: none; stroke: #b0b0b0; stroke-opacity: 0.3; stroke-width: 0.8; stroke-linecap: square"/>
     </g>
     <g id="line2d_62">
      <g>
       <use xlink:href="#m9bfa505207" x="475.2" y="371.127273" style="stroke: #000000; stroke-width: 0.8"/>
      </g>
     </g>
     <g id="text_34">
      <!-- −1.00 -->
      <g transform="translate(427.355928 376.190871)scale(0.13328 -0.13328)">
       <use xlink:href="#DejaVuSerif-2212"/>
       <use xlink:href="#DejaVuSerif-31" x="83.789062"/>
       <use xlink:href="#DejaVuSerif-2e" x="147.412109"/>
       <use xlink:href="#DejaVuSerif-30" x="179.199219"/>
       <use xlink:href="#DejaVuSerif-30" x="242.822266"/>
      </g>
     </g>
    </g>
    <g id="ytick_11">
     <g id="line2d_63">
      <path d="M 475.2 326.945455 
L 777.6 326.945455 
" clip-path="url(#p54c4921722)" style="fill: none; stroke: #b0b0b0; stroke-opacity: 0.3; stroke-width: 0.8; stroke-linecap: square"/>
     </g>
     <g id="line2d_64">
      <g>
       <use xlink:href="#m9bfa505207" x="475.2" y="326.945455" style="stroke: #000000; stroke-width: 0.8"/>
      </g>
     </g>
     <g id="text_35">
      <!-- −0.75 -->
      <g transform="translate(427.355928 332.009053)scale(0.13328 -0.13328)">
       <use xlink:href="#DejaVuSerif-2212"/>
       <use xlink:href="#DejaVuSerif-30" x="83.789062"/>
       <use xlink:href="#DejaVuSerif-2e" x="147.412109"/>
       <use xlink:href="#DejaVuSerif-37" x="179.199219"/>
       <use xlink:href="#DejaVuSerif-35" x="242.822266"/>
      </g>
     </g>
    </g>
    <g id="ytick_12">
     <g id="line2d_65">
      <path d="M 475.2 282.763636 
L 777.6 282.763636 
" clip-path="url(#p54c4921722)" style="fill: none; stroke: #b0b0b0; stroke-opacity: 0.3; stroke-width: 0.8; stroke-linecap: square"/>
     </g>
     <g id="line2d_66">
      <g>
       <use xlink:href="#m9bfa505207" x="475.2" y="282.763636" style="stroke: #000000; stroke-width: 0.8"/>
      </g>
     </g>
     <g id="text_36">
      <!-- −0.50 -->
      <g transform="translate(427.355928 287.827235)scale(0.13328 -0.13328)">
       <use xlink:href="#DejaVuSerif-2212"/>
       <use xlink:href="#DejaVuSerif-30" x="83.789062"/>
       <use xlink:href="#DejaVuSerif-2e" x="147.412109"/>
       <use xlink:href="#DejaVuSerif-35" x="179.199219"/>
       <use xlink:href="#DejaVuSerif-30" x="242.822266"/>
      </g>
     </g>
    </g>
    <g id="ytick_13">
     <g id="line2d_67">
      <path d="M 475.2 238.581818 
L 777.6 238.581818 
" clip-path="url(#p54c4921722)" style="fill: none; stroke: #b0b0b0; stroke-opacity: 0.3; stroke-width: 0.8; stroke-linecap: square"/>
     </g>
     <g id="line2d_68">
      <g>
       <use xlink:href="#m9bfa505207" x="475.2" y="238.581818" style="stroke: #000000; stroke-width: 0.8"/>
      </g>
     </g>
     <g id="text_37">
      <!-- −0.25 -->
      <g transform="translate(427.355928 243.645417)scale(0.13328 -0.13328)">
       <use xlink:href="#DejaVuSerif-2212"/>
       <use xlink:href="#DejaVuSerif-30" x="83.789062"/>
       <use xlink:href="#DejaVuSerif-2e" x="147.412109"/>
       <use xlink:href="#DejaVuSerif-32" x="179.199219"/>
       <use xlink:href="#DejaVuSerif-35" x="242.822266"/>
      </g>
     </g>
    </g>
    <g id="ytick_14">
     <g id="line2d_69">
      <path d="M 475.2 194.4 
L 777.6 194.4 
" clip-path="url(#p54c4921722)" style="fill: none; stroke: #b0b0b0; stroke-opacity: 0.3; stroke-width: 0.8; stroke-linecap: square"/>
     </g>
     <g id="line2d_70">
      <g>
       <use xlink:href="#m9bfa505207" x="475.2" y="194.4" style="stroke: #000000; stroke-width: 0.8"/>
      </g>
     </g>
     <g id="text_38">
      <!-- 0.00 -->
      <g transform="translate(438.524375 199.463599)scale(0.13328 -0.13328)">
       <use xlink:href="#DejaVuSerif-30"/>
       <use xlink:href="#DejaVuSerif-2e" x="63.623047"/>
       <use xlink:href="#DejaVuSerif-30" x="95.410156"/>
       <use xlink:href="#DejaVuSerif-30" x="159.033203"/>
      </g>
     </g>
    </g>
    <g id="ytick_15">
     <g id="line2d_71">
      <path d="M 475.2 150.218182 
L 777.6 150.218182 
" clip-path="url(#p54c4921722)" style="fill: none; stroke: #b0b0b0; stroke-opacity: 0.3; stroke-width: 0.8; stroke-linecap: square"/>
     </g>
     <g id="line2d_72">
      <g>
       <use xlink:href="#m9bfa505207" x="475.2" y="150.218182" style="stroke: #000000; stroke-width: 0.8"/>
      </g>
     </g>
     <g id="text_39">
      <!-- 0.25 -->
      <g transform="translate(438.524375 155.281781)scale(0.13328 -0.13328)">
       <use xlink:href="#DejaVuSerif-30"/>
       <use xlink:href="#DejaVuSerif-2e" x="63.623047"/>
       <use xlink:href="#DejaVuSerif-32" x="95.410156"/>
       <use xlink:href="#DejaVuSerif-35" x="159.033203"/>
      </g>
     </g>
    </g>
    <g id="ytick_16">
     <g id="line2d_73">
      <path d="M 475.2 106.036364 
L 777.6 106.036364 
" clip-path="url(#p54c4921722)" style="fill: none; stroke: #b0b0b0; stroke-opacity: 0.3; stroke-width: 0.8; stroke-linecap: square"/>
     </g>
     <g id="line2d_74">
      <g>
       <use xlink:href="#m9bfa505207" x="475.2" y="106.036364" style="stroke: #000000; stroke-width: 0.8"/>
      </g>
     </g>
     <g id="text_40">
      <!-- 0.50 -->
      <g transform="translate(438.524375 111.099962)scale(0.13328 -0.13328)">
       <use xlink:href="#DejaVuSerif-30"/>
       <use xlink:href="#DejaVuSerif-2e" x="63.623047"/>
       <use xlink:href="#DejaVuSerif-35" x="95.410156"/>
       <use xlink:href="#DejaVuSerif-30" x="159.033203"/>
      </g>
     </g>
    </g>
    <g id="ytick_17">
     <g id="line2d_75">
      <path d="M 475.2 61.854545 
L 777.6 61.854545 
" clip-path="url(#p54c4921722)" style="fill: none; stroke: #b0b0b0; stroke-opacity: 0.3; stroke-width: 0.8; stroke-linecap: square"/>
     </g>
     <g id="line2d_76">
      <g>
       <use xlink:href="#m9bfa505207" x="475.2" y="61.854545" style="stroke: #000000; stroke-width: 0.8"/>
      </g>
     </g>
     <g id="text_41">
      <!-- 0.75 -->
      <g transform="translate(438.524375 66.918144)scale(0.13328 -0.13328)">
       <use xlink:href="#DejaVuSerif-30"/>
       <use xlink:href="#DejaVuSerif-2e" x="63.623047"/>
       <use xlink:href="#DejaVuSerif-37" x="95.410156"/>
       <use xlink:href="#DejaVuSerif-35" x="159.033203"/>
      </g>
     </g>
    </g>
    <g id="ytick_18">
     <g id="line2d_77">
      <path d="M 475.2 17.672727 
L 777.6 17.672727 
" clip-path="url(#p54c4921722)" style="fill: none; stroke: #b0b0b0; stroke-opacity: 0.3; stroke-width: 0.8; stroke-linecap: square"/>
     </g>
     <g id="line2d_78">
      <g>
       <use xlink:href="#m9bfa505207" x="475.2" y="17.672727" style="stroke: #000000; stroke-width: 0.8"/>
      </g>
     </g>
     <g id="text_42">
      <!-- 1.00 -->
      <g transform="translate(438.524375 22.736326)scale(0.13328 -0.13328)">
       <use xlink:href="#DejaVuSerif-31"/>
       <use xlink:href="#DejaVuSerif-2e" x="63.623047"/>
       <use xlink:href="#DejaVuSerif-30" x="95.410156"/>
       <use xlink:href="#DejaVuSerif-30" x="159.033203"/>
      </g>
     </g>
    </g>
    <g id="text_43">
     <!-- $\sin (x)$ -->
     <g transform="translate(420.028428 216.88)rotate(-90)scale(0.16 -0.16)">
      <use xlink:href="#DejaVuSans-73" transform="translate(0 0.015625)"/>
      <use xlink:href="#DejaVuSans-69" transform="translate(52.099609 0.015625)"/>
      <use xlink:href="#DejaVuSans-6e" transform="translate(79.882812 0.015625)"/>
      <use xlink:href="#DejaVuSans-28" transform="translate(143.261719 0.015625)"/>
      <use xlink:href="#DejaVuSans-Oblique-78" transform="translate(182.275391 0.015625)"/>
      <use xlink:href="#DejaVuSans-29" transform="translate(241.455078 0.015625)"/>
     </g>
    </g>
   </g>
   <g id="line2d_79">
    <path d="M 475.2 194.4 
L 482.4576 141.904651 
L 486.3888 115.158457 
L 489.4128 95.984891 
L 492.1344 80.047565 
L 494.5536 67.101751 
L 496.6704 56.824481 
L 498.7872 47.611052 
L 500.6016 40.614798 
L 502.416 34.492383 
L 503.928 30.083137 
L 505.44 26.322376 
L 506.952 23.22494 
L 508.1616 21.232889 
L 509.3712 19.678273 
L 510.2784 18.801783 
L 511.1856 18.174827 
L 512.0928 17.798297 
L 513 17.672727 
L 513.9072 17.798297 
L 514.8144 18.174827 
L 515.7216 18.801783 
L 516.6288 19.678273 
L 517.8384 21.232889 
L 519.048 23.22494 
L 520.2576 25.649393 
L 521.7696 29.278594 
L 523.2816 33.559454 
L 524.7936 38.475078 
L 526.608 45.184228 
L 528.4224 52.741253 
L 530.5392 62.571856 
L 532.656 73.421857 
L 535.0752 86.962136 
L 537.7968 103.484504 
L 540.8208 123.195444 
L 544.4496 148.302192 
L 549.8928 187.739117 
L 558.0576 246.895349 
L 561.9888 273.641543 
L 565.0128 292.815109 
L 567.7344 308.752435 
L 570.1536 321.698249 
L 572.2704 331.975519 
L 574.3872 341.188948 
L 576.2016 348.185202 
L 578.016 354.307617 
L 579.528 358.716863 
L 581.04 362.477624 
L 582.552 365.57506 
L 583.7616 367.567111 
L 584.9712 369.121727 
L 585.8784 369.998217 
L 586.7856 370.625173 
L 587.6928 371.001703 
L 588.6 371.127273 
L 589.5072 371.001703 
L 590.4144 370.625173 
L 591.3216 369.998217 
L 592.2288 369.121727 
L 593.4384 367.567111 
L 594.648 365.57506 
L 595.8576 363.150607 
L 597.3696 359.521406 
L 598.8816 355.240546 
L 600.3936 350.324922 
L 602.208 343.615772 
L 604.0224 336.058747 
L 606.1392 326.228144 
L 608.256 315.378143 
L 610.6752 301.837864 
L 613.3968 285.315496 
L 616.4208 265.604556 
L 620.0496 240.497808 
L 625.4928 201.060883 
L 633.6576 141.904651 
L 637.5888 115.158457 
L 640.6128 95.984891 
L 643.3344 80.047565 
L 645.7536 67.101751 
L 647.8704 56.824481 
L 649.9872 47.611052 
L 651.8016 40.614798 
L 653.616 34.492383 
L 655.128 30.083137 
L 656.64 26.322376 
L 658.152 23.22494 
L 659.3616 21.232889 
L 660.5712 19.678273 
L 661.4784 18.801783 
L 662.3856 18.174827 
L 663.2928 17.798297 
L 664.2 17.672727 
L 665.1072 17.798297 
L 666.0144 18.174827 
L 666.9216 18.801783 
L 667.8288 19.678273 
L 669.0384 21.232889 
L 670.248 23.22494 
L 671.4576 25.649393 
L 672.9696 29.278594 
L 674.4816 33.559454 
L 675.9936 38.475078 
L 677.808 45.184228 
L 679.6224 52.741253 
L 681.7392 62.571856 
L 683.856 73.421857 
L 686.2752 86.962136 
L 688.9968 103.484504 
L 692.0208 123.195444 
L 695.6496 148.302192 
L 701.0928 187.739117 
L 709.2576 246.895349 
L 713.1888 273.641543 
L 716.2128 292.815109 
L 718.9344 308.752435 
L 721.3536 321.698249 
L 723.4704 331.975519 
L 725.5872 341.188948 
L 727.4016 348.185202 
L 729.216 354.307617 
L 730.728 358.716863 
L 732.24 362.477624 
L 733.752 365.57506 
L 734.9616 367.567111 
L 736.1712 369.121727 
L 737.0784 369.998217 
L 737.9856 370.625173 
L 738.8928 371.001703 
L 739.8 371.127273 
L 740.7072 371.001703 
L 741.6144 370.625173 
L 742.5216 369.998217 
L 743.4288 369.121727 
L 744.6384 367.567111 
L 745.848 365.57506 
L 747.0576 363.150607 
L 748.5696 359.521406 
L 750.0816 355.240546 
L 751.5936 350.324922 
L 753.408 343.615772 
L 755.2224 336.058747 
L 757.3392 326.228144 
L 759.456 315.378143 
L 761.8752 301.837864 
L 764.5968 285.315496 
L 767.6208 265.604556 
L 771.2496 240.497808 
L 776.6928 201.060883 
L 777.6 194.4 
L 777.6 194.4 
" clip-path="url(#p54c4921722)" style="fill: none; stroke: #000000; stroke-width: 1.5; stroke-linecap: square"/>
   </g>
   <g id="line2d_80">
    <path d="M 626.4 388.8 
L 626.4 194.4 
" clip-path="url(#p54c4921722)" style="fill: none; stroke-dasharray: 5.55,2.4; stroke-dashoffset: 0; stroke: #000000; stroke-width: 1.5"/>
   </g>
   <g id="line2d_81">
    <path d="M 569.5488 318.577413 
L 683.2512 70.222587 
L 683.2512 70.222587 
" clip-path="url(#p54c4921722)" style="fill: none; stroke-dasharray: 5.55,2.4; stroke-dashoffset: 0; stroke: #1f77b4; stroke-width: 1.5"/>
   </g>
   <g id="line2d_82">
    <path d="M 626.4 194.4 
" clip-path="url(#p54c4921722)" style="fill: none; stroke: #000000; stroke-width: 1.5; stroke-linecap: square"/>
    <g clip-path="url(#p54c4921722)">
     <use xlink:href="#mfd2018bf51" x="626.4" y="194.4" style="stroke: #000000"/>
    </g>
   </g>
   <g id="line2d_83">
    <path d="M 683.2512 70.222587 
" clip-path="url(#p54c4921722)" style="fill: none; stroke: #17becf; stroke-width: 1.5; stroke-linecap: square"/>
    <g clip-path="url(#p54c4921722)">
     <use xlink:href="#m8296981d2e" x="683.2512" y="70.222587" style="fill: #17becf; stroke: #17becf"/>
    </g>
   </g>
   <g id="line2d_84">
    <path d="M 569.5488 318.577413 
" clip-path="url(#p54c4921722)" style="fill: none; stroke: #17becf; stroke-width: 1.5; stroke-linecap: square"/>
    <g clip-path="url(#p54c4921722)">
     <use xlink:href="#m8296981d2e" x="569.5488" y="318.577413" style="fill: #17becf; stroke: #17becf"/>
    </g>
   </g>
   <g id="patch_6">
    <path d="M 475.2 388.8 
L 475.2 -0 
" style="fill: none; stroke: #000000; stroke-width: 2; stroke-linejoin: miter; stroke-linecap: square"/>
   </g>
   <g id="patch_7">
    <path d="M 475.2 388.8 
L 777.6 388.8 
" style="fill: none; stroke: #000000; stroke-width: 2; stroke-linejoin: miter; stroke-linecap: square"/>
   </g>
   <g id="text_44">
    <!-- $f(x_0) + \frac{3\pi}{4}$ -->
    <g transform="translate(688.064045 52.54986)scale(0.16 -0.16)">
     <use xlink:href="#DejaVuSans-Oblique-66" transform="translate(0 0.915625)"/>
     <use xlink:href="#DejaVuSans-28" transform="translate(35.205078 0.915625)"/>
     <use xlink:href="#DejaVuSans-Oblique-78" transform="translate(74.21875 0.915625)"/>
     <use xlink:href="#DejaVuSans-30" transform="translate(133.398438 -15.490625)scale(0.7)"/>
     <use xlink:href="#DejaVuSans-29" transform="translate(180.668945 0.915625)"/>
     <use xlink:href="#DejaVuSans-2b" transform="translate(239.165039 0.915625)"/>
     <use xlink:href="#DejaVuSans-33" transform="translate(342.436523 46.046875)scale(0.7)"/>
     <use xlink:href="#DejaVuSans-Oblique-3c0" transform="translate(386.972656 46.046875)scale(0.7)"/>
     <use xlink:href="#DejaVuSans-34" transform="translate(363.436523 -37.571875)scale(0.7)"/>
     <path d="M 342.436523 19.7125 
L 342.436523 25.9625 
L 429.116211 25.9625 
L 429.116211 19.7125 
L 342.436523 19.7125 
z
"/>
    </g>
   </g>
   <g id="text_45">
    <!-- $f(x_0) - \frac{3\pi}{4}$ -->
    <g transform="translate(497.356118 336.25014)scale(0.16 -0.16)">
     <use xlink:href="#DejaVuSans-Oblique-66" transform="translate(0 0.915625)"/>
     <use xlink:href="#DejaVuSans-28" transform="translate(35.205078 0.915625)"/>
     <use xlink:href="#DejaVuSans-Oblique-78" transform="translate(74.21875 0.915625)"/>
     <use xlink:href="#DejaVuSans-30" transform="translate(133.398438 -15.490625)scale(0.7)"/>
     <use xlink:href="#DejaVuSans-29" transform="translate(180.668945 0.915625)"/>
     <use xlink:href="#DejaVuSans-2212" transform="translate(239.165039 0.915625)"/>
     <use xlink:href="#DejaVuSans-33" transform="translate(342.436523 46.046875)scale(0.7)"/>
     <use xlink:href="#DejaVuSans-Oblique-3c0" transform="translate(386.972656 46.046875)scale(0.7)"/>
     <use xlink:href="#DejaVuSans-34" transform="translate(363.436523 -37.571875)scale(0.7)"/>
     <path d="M 342.436523 19.7125 
L 342.436523 25.9625 
L 429.116211 25.9625 
L 429.116211 19.7125 
L 342.436523 19.7125 
z
"/>
    </g>
   </g>
   <g id="text_46">
    <!-- $x_0$ -->
    <g transform="translate(631.212845 212.072727)scale(0.16 -0.16)">
     <use xlink:href="#DejaVuSans-Oblique-78" transform="translate(0 0.3125)"/>
     <use xlink:href="#DejaVuSans-30" transform="translate(59.179688 -16.09375)scale(0.7)"/>
    </g>
   </g>
  </g>
 </g>
 <defs>
  <clipPath id="p3cc52b2e7e">
   <rect x="86.4" y="0" width="302.4" height="388.8"/>
  </clipPath>
  <clipPath id="p54c4921722">
   <rect x="475.2" y="0" width="302.4" height="388.8"/>
  </clipPath>
 </defs>
</svg>
